<svg xmlns="http://www.w3.org/2000/svg" width="375" viewBox="0 0 375 375" height="375" version="1.0"><defs><clipPath id="a"><path d="M 224.058594 144.195312 L 247 144.195312 L 247 167 L 224.058594 167 Z M 224.058594 144.195312"/></clipPath><clipPath id="b"><path d="M 224.058594 170 L 247 170 L 247 193 L 224.058594 193 Z M 224.058594 170"/></clipPath><clipPath id="c"><path d="M 224.058594 196 L 247 196 L 247 219 L 224.058594 219 Z M 224.058594 196"/></clipPath><clipPath id="d"><path d="M 224.058594 222 L 247 222 L 247 244.695312 L 224.058594 244.695312 Z M 224.058594 222"/></clipPath><clipPath id="e"><path d="M 250 222 L 273 222 L 273 244.695312 L 250 244.695312 Z M 250 222"/></clipPath><clipPath id="f"><path d="M 275 222 L 299 222 L 299 244.695312 L 275 244.695312 Z M 275 222"/></clipPath><clipPath id="g"><path d="M 301 222 L 324.558594 222 L 324.558594 244.695312 L 301 244.695312 Z M 301 222"/></clipPath></defs><path fill="#FFF" d="M-37.5 -37.5H412.5V412.5H-37.5z"/><path fill="#FFF" d="M-37.5 -37.5H412.5V412.5H-37.5z"/><path fill="#EDF8FE" d="M-37.5 -37.5H412.5V412.5H-37.5z"/><g clip-path="url(#a)"><path fill="#A4DEF9" d="M 224.058594 144.195312 L 246.699219 144.195312 L 246.699219 166.835938 L 224.058594 166.835938 Z M 224.058594 144.195312"/></g><g clip-path="url(#b)"><path fill="#A4DEF9" d="M 224.058594 170.148438 L 246.699219 170.148438 L 246.699219 192.789062 L 224.058594 192.789062 Z M 224.058594 170.148438"/></g><g clip-path="url(#c)"><path fill="#A4DEF9" d="M 224.058594 196.101562 L 246.699219 196.101562 L 246.699219 218.742188 L 224.058594 218.742188 Z M 224.058594 196.101562"/></g><g clip-path="url(#d)"><path fill="#A4DEF9" d="M 224.058594 222.054688 L 246.699219 222.054688 L 246.699219 244.695312 L 224.058594 244.695312 Z M 224.058594 222.054688"/></g><path fill="#97F9F9" d="M 250.015625 170.148438 L 272.652344 170.148438 L 272.652344 192.789062 L 250.015625 192.789062 Z M 250.015625 170.148438"/><path fill="#97F9F9" d="M 250.015625 196.101562 L 272.652344 196.101562 L 272.652344 218.742188 L 250.015625 218.742188 Z M 250.015625 196.101562"/><g clip-path="url(#e)"><path fill="#97F9F9" d="M 250.015625 222.054688 L 272.652344 222.054688 L 272.652344 244.695312 L 250.015625 244.695312 Z M 250.015625 222.054688"/></g><path fill="#C1E0F7" d="M 275.96875 196.101562 L 298.605469 196.101562 L 298.605469 218.742188 L 275.96875 218.742188 Z M 275.96875 196.101562"/><g clip-path="url(#f)"><path fill="#C1E0F7" d="M 275.96875 222.054688 L 298.605469 222.054688 L 298.605469 244.695312 L 275.96875 244.695312 Z M 275.96875 222.054688"/></g><g clip-path="url(#g)"><path fill="#CFBAE1" d="M 301.921875 222.054688 L 324.558594 222.054688 L 324.558594 244.695312 L 301.921875 244.695312 Z M 301.921875 222.054688"/></g><g fill="#060B16"><g><g><path d="M 22.4375 -16.3125 L 22.4375 -10.5 C 22.4375 -6.957031 21.570312 -4.238281 19.84375 -2.34375 C 18.113281 -0.445312 15.5625 0.5 12.1875 0.5 C 8.8125 0.5 6.257812 -0.445312 4.53125 -2.34375 C 2.800781 -4.238281 1.9375 -6.957031 1.9375 -10.5 L 1.9375 -33.25 C 1.9375 -36.789062 2.800781 -39.507812 4.53125 -41.40625 C 6.257812 -43.300781 8.8125 -44.25 12.1875 -44.25 C 15.5625 -44.25 18.113281 -43.300781 19.84375 -41.40625 C 21.570312 -39.507812 22.4375 -36.789062 22.4375 -33.25 L 22.4375 -29 L 15.9375 -29 L 15.9375 -33.6875 C 15.9375 -35.269531 15.613281 -36.382812 14.96875 -37.03125 C 14.320312 -37.675781 13.457031 -38 12.375 -38 C 11.289062 -38 10.425781 -37.675781 9.78125 -37.03125 C 9.132812 -36.382812 8.8125 -35.269531 8.8125 -33.6875 L 8.8125 -10.0625 C 8.8125 -8.476562 9.132812 -7.375 9.78125 -6.75 C 10.425781 -6.125 11.289062 -5.8125 12.375 -5.8125 C 13.457031 -5.8125 14.320312 -6.125 14.96875 -6.75 C 15.613281 -7.375 15.9375 -8.476562 15.9375 -10.0625 L 15.9375 -16.3125 Z M 22.4375 -16.3125" transform="translate(104.92 190.35)"/></g></g></g><g fill="#060B16"><g><g><path d="M 9.375 0 L 2.5 0 L 2.5 -43.75 L 9.375 -43.75 L 9.375 -25 L 17.1875 -25 L 17.1875 -43.75 L 24.1875 -43.75 L 24.1875 0 L 17.1875 0 L 17.1875 -18.75 L 9.375 -18.75 Z M 9.375 0" transform="translate(129.044 190.35)"/></g></g></g><g fill="#060B16"><g><g><path d="M 16.875 0 C 16.789062 -0.289062 16.707031 -0.5625 16.625 -0.8125 C 16.539062 -1.0625 16.46875 -1.375 16.40625 -1.75 C 16.34375 -2.125 16.300781 -2.601562 16.28125 -3.1875 C 16.257812 -3.769531 16.25 -4.5 16.25 -5.375 L 16.25 -12.25 C 16.25 -14.289062 15.894531 -15.726562 15.1875 -16.5625 C 14.476562 -17.394531 13.332031 -17.8125 11.75 -17.8125 L 9.375 -17.8125 L 9.375 0 L 2.5 0 L 2.5 -43.75 L 12.875 -43.75 C 16.457031 -43.75 19.050781 -42.914062 20.65625 -41.25 C 22.257812 -39.582031 23.0625 -37.0625 23.0625 -33.6875 L 23.0625 -30.25 C 23.0625 -25.75 21.5625 -22.789062 18.5625 -21.375 C 20.3125 -20.664062 21.507812 -19.507812 22.15625 -17.90625 C 22.800781 -16.300781 23.125 -14.351562 23.125 -12.0625 L 23.125 -5.3125 C 23.125 -4.226562 23.164062 -3.28125 23.25 -2.46875 C 23.332031 -1.65625 23.539062 -0.832031 23.875 0 Z M 9.375 -37.5 L 9.375 -24.0625 L 12.0625 -24.0625 C 13.351562 -24.0625 14.363281 -24.394531 15.09375 -25.0625 C 15.820312 -25.726562 16.1875 -26.9375 16.1875 -28.6875 L 16.1875 -33 C 16.1875 -34.582031 15.90625 -35.726562 15.34375 -36.4375 C 14.78125 -37.144531 13.894531 -37.5 12.6875 -37.5 Z M 9.375 -37.5" transform="translate(155.73 190.35)"/></g></g></g><g fill="#060B16"><g><g><path d="M 2.5 -43.75 L 9.375 -43.75 L 9.375 0 L 2.5 0 Z M 2.5 -43.75" transform="translate(180.853 190.35)"/></g></g></g><g fill="#060B16"><g><g><path d="M 1.625 -33.25 C 1.625 -36.789062 2.46875 -39.507812 4.15625 -41.40625 C 5.84375 -43.300781 8.375 -44.25 11.75 -44.25 C 15.125 -44.25 17.65625 -43.300781 19.34375 -41.40625 C 21.03125 -39.507812 21.875 -36.789062 21.875 -33.25 L 21.875 -31.875 L 15.375 -31.875 L 15.375 -33.6875 C 15.375 -35.269531 15.070312 -36.382812 14.46875 -37.03125 C 13.863281 -37.675781 13.019531 -38 11.9375 -38 C 10.851562 -38 10.007812 -37.675781 9.40625 -37.03125 C 8.800781 -36.382812 8.5 -35.269531 8.5 -33.6875 C 8.5 -32.1875 8.832031 -30.863281 9.5 -29.71875 C 10.164062 -28.570312 11 -27.488281 12 -26.46875 C 13 -25.445312 14.070312 -24.425781 15.21875 -23.40625 C 16.363281 -22.382812 17.4375 -21.269531 18.4375 -20.0625 C 19.4375 -18.851562 20.269531 -17.476562 20.9375 -15.9375 C 21.601562 -14.394531 21.9375 -12.582031 21.9375 -10.5 C 21.9375 -6.957031 21.070312 -4.238281 19.34375 -2.34375 C 17.613281 -0.445312 15.0625 0.5 11.6875 0.5 C 8.3125 0.5 5.757812 -0.445312 4.03125 -2.34375 C 2.300781 -4.238281 1.4375 -6.957031 1.4375 -10.5 L 1.4375 -13.1875 L 7.9375 -13.1875 L 7.9375 -10.0625 C 7.9375 -8.476562 8.257812 -7.375 8.90625 -6.75 C 9.550781 -6.125 10.414062 -5.8125 11.5 -5.8125 C 12.582031 -5.8125 13.445312 -6.125 14.09375 -6.75 C 14.738281 -7.375 15.0625 -8.476562 15.0625 -10.0625 C 15.0625 -11.5625 14.726562 -12.882812 14.0625 -14.03125 C 13.394531 -15.175781 12.5625 -16.257812 11.5625 -17.28125 C 10.5625 -18.300781 9.488281 -19.320312 8.34375 -20.34375 C 7.195312 -21.363281 6.125 -22.476562 5.125 -23.6875 C 4.125 -24.894531 3.289062 -26.269531 2.625 -27.8125 C 1.957031 -29.351562 1.625 -31.164062 1.625 -33.25 Z M 1.625 -33.25" transform="translate(192.727 190.35)"/></g></g></g><g fill="#060B16"><g><g><path d="M 22.4375 -16.3125 L 22.4375 -10.5 C 22.4375 -6.957031 21.570312 -4.238281 19.84375 -2.34375 C 18.113281 -0.445312 15.5625 0.5 12.1875 0.5 C 8.8125 0.5 6.257812 -0.445312 4.53125 -2.34375 C 2.800781 -4.238281 1.9375 -6.957031 1.9375 -10.5 L 1.9375 -33.25 C 1.9375 -36.789062 2.800781 -39.507812 4.53125 -41.40625 C 6.257812 -43.300781 8.8125 -44.25 12.1875 -44.25 C 15.5625 -44.25 18.113281 -43.300781 19.84375 -41.40625 C 21.570312 -39.507812 22.4375 -36.789062 22.4375 -33.25 L 22.4375 -29 L 15.9375 -29 L 15.9375 -33.6875 C 15.9375 -35.269531 15.613281 -36.382812 14.96875 -37.03125 C 14.320312 -37.675781 13.457031 -38 12.375 -38 C 11.289062 -38 10.425781 -37.675781 9.78125 -37.03125 C 9.132812 -36.382812 8.8125 -35.269531 8.8125 -33.6875 L 8.8125 -10.0625 C 8.8125 -8.476562 9.132812 -7.375 9.78125 -6.75 C 10.425781 -6.125 11.289062 -5.8125 12.375 -5.8125 C 13.457031 -5.8125 14.320312 -6.125 14.96875 -6.75 C 15.613281 -7.375 15.9375 -8.476562 15.9375 -10.0625 L 15.9375 -16.3125 Z M 22.4375 -16.3125" transform="translate(66.8 242.85)"/></g></g></g><g fill="#060B16"><g><g><path d="M 24.75 0 L 17.8125 0 L 16.625 -7.9375 L 8.1875 -7.9375 L 7 0 L 0.6875 0 L 7.6875 -43.75 L 17.75 -43.75 Z M 9.0625 -13.875 L 15.6875 -13.875 L 12.375 -36 Z M 9.0625 -13.875" transform="translate(90.923 242.85)"/></g></g></g><g fill="#060B16"><g><g><path d="M 1.625 -33.25 C 1.625 -36.789062 2.46875 -39.507812 4.15625 -41.40625 C 5.84375 -43.300781 8.375 -44.25 11.75 -44.25 C 15.125 -44.25 17.65625 -43.300781 19.34375 -41.40625 C 21.03125 -39.507812 21.875 -36.789062 21.875 -33.25 L 21.875 -31.875 L 15.375 -31.875 L 15.375 -33.6875 C 15.375 -35.269531 15.070312 -36.382812 14.46875 -37.03125 C 13.863281 -37.675781 13.019531 -38 11.9375 -38 C 10.851562 -38 10.007812 -37.675781 9.40625 -37.03125 C 8.800781 -36.382812 8.5 -35.269531 8.5 -33.6875 C 8.5 -32.1875 8.832031 -30.863281 9.5 -29.71875 C 10.164062 -28.570312 11 -27.488281 12 -26.46875 C 13 -25.445312 14.070312 -24.425781 15.21875 -23.40625 C 16.363281 -22.382812 17.4375 -21.269531 18.4375 -20.0625 C 19.4375 -18.851562 20.269531 -17.476562 20.9375 -15.9375 C 21.601562 -14.394531 21.9375 -12.582031 21.9375 -10.5 C 21.9375 -6.957031 21.070312 -4.238281 19.34375 -2.34375 C 17.613281 -0.445312 15.0625 0.5 11.6875 0.5 C 8.3125 0.5 5.757812 -0.445312 4.03125 -2.34375 C 2.300781 -4.238281 1.4375 -6.957031 1.4375 -10.5 L 1.4375 -13.1875 L 7.9375 -13.1875 L 7.9375 -10.0625 C 7.9375 -8.476562 8.257812 -7.375 8.90625 -6.75 C 9.550781 -6.125 10.414062 -5.8125 11.5 -5.8125 C 12.582031 -5.8125 13.445312 -6.125 14.09375 -6.75 C 14.738281 -7.375 15.0625 -8.476562 15.0625 -10.0625 C 15.0625 -11.5625 14.726562 -12.882812 14.0625 -14.03125 C 13.394531 -15.175781 12.5625 -16.257812 11.5625 -17.28125 C 10.5625 -18.300781 9.488281 -19.320312 8.34375 -20.34375 C 7.195312 -21.363281 6.125 -22.476562 5.125 -23.6875 C 4.125 -24.894531 3.289062 -26.269531 2.625 -27.8125 C 1.957031 -29.351562 1.625 -31.164062 1.625 -33.25 Z M 1.625 -33.25" transform="translate(116.359 242.85)"/></g></g></g><g fill="#060B16"><g><g><path d="M 9.375 0 L 2.5 0 L 2.5 -43.75 L 9.375 -43.75 L 9.375 -25 L 17.1875 -25 L 17.1875 -43.75 L 24.1875 -43.75 L 24.1875 0 L 17.1875 0 L 17.1875 -18.75 L 9.375 -18.75 Z M 9.375 0" transform="translate(139.732 242.85)"/></g></g></g><g fill="#060B16"><g><g><path d="M 9.375 -25.3125 L 18.8125 -25.3125 L 18.8125 -19.0625 L 9.375 -19.0625 L 9.375 -6.25 L 21.25 -6.25 L 21.25 0 L 2.5 0 L 2.5 -43.75 L 21.25 -43.75 L 21.25 -37.5 L 9.375 -37.5 Z M 9.375 -25.3125" transform="translate(166.418 242.85)"/></g></g></g><g fill="#060B16"><g><g><path d="M 8.625 -31.6875 L 8.625 0 L 2.4375 0 L 2.4375 -43.75 L 11.0625 -43.75 L 18.125 -17.5625 L 18.125 -43.75 L 24.25 -43.75 L 24.25 0 L 17.1875 0 Z M 8.625 -31.6875" transform="translate(189.417 242.85)"/></g></g></g></svg>